<svg xmlns="http://www.w3.org/2000/svg" width="900" height="180" viewBox="0 0 900 180" role="img" aria-label="HRJR Hospital Regional Jorge Rossmann">
  <rect width="900" height="180" rx="18" fill="#ffffff"/>
  <rect x="0" y="0" width="900" height="8" fill="#1b6f3a"/>
  <g transform="translate(28 38)">
    <circle cx="48" cy="48" r="38" fill="#f2f5f7" stroke="#d9e2ea" stroke-width="3"/>
    <path d="M48 18 l28 12 v24 c0 24-16 40-28 46-12-6-28-22-28-46V30z" fill="#d61f2c"/>
    <text x="48" y="58" text-anchor="middle" font-family="Arial, sans-serif" font-weight="800" font-size="24" fill="#ffffff">SP</text>
    <text x="48" y="112" text-anchor="middle" font-family="Arial, sans-serif" font-weight="700" font-size="12" fill="#2f3540">GOVERNO DO ESTADO</text>
    <text x="48" y="128" text-anchor="middle" font-family="Arial, sans-serif" font-weight="700" font-size="12" fill="#2f3540">DE SÃO PAULO</text>
  </g>
  <g transform="translate(260 42)">
    <path d="M0 0 C22 18 22 52 0 70" fill="none" stroke="#65a8df" stroke-width="8" stroke-linecap="round"/>
    <path d="M24 0 C46 18 46 52 24 70" fill="none" stroke="#65a8df" stroke-width="8" stroke-linecap="round"/>
    <path d="M48 0 C70 18 70 52 48 70" fill="none" stroke="#65a8df" stroke-width="8" stroke-linecap="round"/>
    <text x="100" y="36" font-family="Arial, sans-serif" font-weight="800" font-size="48" fill="#2b77bd">ISG</text>
    <text x="102" y="62" font-family="Arial, sans-serif" font-size="20" fill="#75a9cf">Instituto</text>
    <text x="102" y="84" font-family="Arial, sans-serif" font-size="20" fill="#75a9cf">Sócrates</text>
    <text x="102" y="106" font-family="Arial, sans-serif" font-size="20" fill="#75a9cf">Guanaes</text>
  </g>
  <g transform="translate(585 60)">
    <text x="0" y="0" font-family="Arial, sans-serif" font-weight="900" font-size="32" fill="#111827">HOSPITAL REGIONAL</text>
    <text x="0" y="42" font-family="Arial, sans-serif" font-weight="900" font-size="32" fill="#111827">JORGE ROSSMANN</text>
  </g>
</svg>
