<svg xmlns="http://www.w3.org/2000/svg" width="1200" height="240" viewBox="0 0 1200 240" role="img" aria-label="HRJR Hospital Regional Jorge Rossmann">
  <rect width="1200" height="240" rx="26" fill="#ffffff"/>
  <rect x="0" y="0" width="1200" height="10" fill="#1b6f3a"/>
  <g transform="translate(36 52)">
    <circle cx="58" cy="58" r="46" fill="#f2f5f7" stroke="#d9e2ea" stroke-width="3"/>
    <path d="M58 22 l34 14 v30 c0 29-19 48-34 56-15-8-34-27-34-56V36z" fill="#d61f2c"/>
    <text x="58" y="70" text-anchor="middle" font-family="Arial, sans-serif" font-weight="800" font-size="28" fill="#ffffff">SP</text>
    <text x="58" y="134" text-anchor="middle" font-family="Arial, sans-serif" font-weight="700" font-size="14" fill="#2f3540">GOVERNO DO ESTADO</text>
    <text x="58" y="153" text-anchor="middle" font-family="Arial, sans-serif" font-weight="700" font-size="14" fill="#2f3540">DE SÃO PAULO</text>
  </g>
  <g transform="translate(325 54)">
    <path d="M0 0 C24 22 24 70 0 94" fill="none" stroke="#65a8df" stroke-width="9" stroke-linecap="round"/>
    <path d="M30 0 C54 22 54 70 30 94" fill="none" stroke="#65a8df" stroke-width="9" stroke-linecap="round"/>
    <path d="M60 0 C84 22 84 70 60 94" fill="none" stroke="#65a8df" stroke-width="9" stroke-linecap="round"/>
    <text x="124" y="45" font-family="Arial, sans-serif" font-weight="800" font-size="58" fill="#2b77bd">ISG</text>
    <text x="128" y="76" font-family="Arial, sans-serif" font-size="24" fill="#75a9cf">Instituto</text>
    <text x="128" y="102" font-family="Arial, sans-serif" font-size="24" fill="#75a9cf">Sócrates</text>
    <text x="128" y="128" font-family="Arial, sans-serif" font-size="24" fill="#75a9cf">Guanaes</text>
  </g>
  <g transform="translate(750 88)">
    <text x="0" y="0" font-family="Arial, sans-serif" font-weight="900" font-size="36" fill="#111827">HOSPITAL REGIONAL</text>
    <text x="0" y="50" font-family="Arial, sans-serif" font-weight="900" font-size="36" fill="#111827">JORGE ROSSMANN</text>
  </g>
</svg>
